<svg version="1.1"
    xmlns="http://www.w3.org/2000/svg"
    xmlns:xlink="http://www.w3.org/1999/xlink">
    <symbol id="advantages-1" viewBox="0 0 60 64">
        <g>
            <g>
                <g>
                    <path class="adv-2" d="M36.7,31.7l-1.4-1.4l6.3-6.3H57c0.6,0,1-0.4,1-1V3c0-0.6-0.4-1-1-1H25c-0.6,0-1,0.4-1,1v9h-2V3
				c0-1.7,1.3-3,3-3h32c1.7,0,3,1.3,3,3v20c0,1.7-1.3,3-3,3H42.4L36.7,31.7z"></path>
                </g>
                <g>
                    <rect x="36" y="12" class="st0" width="2" height="2"></rect>
                </g>
                <g>
                    <rect x="40" y="12" class="st0" width="2" height="2"></rect>
                </g>
                <g>
                    <rect x="44" y="12" class="st0" width="2" height="2"></rect>
                </g>
                <g>
                    <g>
                        <g>
                            <path class="adv-3" d="M30,44"></path>
                        </g>
                        <g>
                            <path class="adv-2" d="M2,64H0v-7c0-8,4.4-9.7,9.2-11.5c1.7-0.7,3.5-1.3,5.4-2.4l1,1.7c-1.9,1.1-3.9,1.9-5.6,2.5
						C5.1,49.2,2,50.4,2,57V64z"></path>
                        </g>
                        <g>
                            <path class="adv-2" d="M46,64h-2v-7c0-6.6-3.1-7.8-7.9-9.6c-1.7-0.7-3.7-1.4-5.6-2.5l1-1.7c1.8,1,3.6,1.7,5.4,2.4
						C41.6,47.3,46,49,46,57V64z"></path>
                        </g>
                        <g>
                            <path class="adv-2" d="M27.2,49.2L23,47.1l-4.2,2.1l-5.1-5.1l2.8-4.2L23,41l6.5-1.1l2.8,4.2L27.2,49.2z M23,44.9l3.8,1.9l2.9-2.9
						l-1.2-1.8L23,43l-5.5-0.9l-1.2,1.8l2.9,2.9L23,44.9z"></path>
                        </g>
                        <g>
                            <rect x="27" y="37" class="adv-2" width="2" height="4"></rect>
                        </g>
                        <g>
                            <rect x="17" y="37" class="adv-2" width="2" height="4"></rect>
                        </g>
                        <g>
                            <rect x="22" y="54" class="adv-2" width="2" height="2"></rect>
                        </g>
                        <g>
                            <rect x="22" y="50" class="adv-2" width="2" height="2"></rect>
                        </g>
                        <g>
                            <g>
                                <path class="adv-2" d="M23,39c-0.1,0-3.3,0-5.4-1.1l-0.1-0.1c-0.1-0.1-3.4-2.3-4.4-9.7l0-0.1v-4h2v3.9c0.9,5.9,3.2,8,3.5,8.2
							C20.3,37,23,37,23,37c0,0,2.7,0,4.5-0.9c0.3-0.2,2.7-2.3,3.5-8.2V24h2l0,4.1c-1.1,7.4-4.3,9.6-4.4,9.7l-0.1,0.1
							C26.3,39,23.1,39,23,39z"></path>
                            </g>
                            <g>
                                <path class="adv-2" d="M33,24h-2c0-5.5-2.5-8-8-8c-5.5,0-8,2.5-8,8h-2c0-6.6,3.4-10,10-10C29.6,14,33,17.4,33,24z"></path>
                            </g>
                            <g>
                                <polygon class="adv-2" points="28,27.1 18,23.1 14.4,24.9 13.6,23.1 18,20.9 28,24.9 31.6,23.1 32.4,24.9 						"></polygon>
                            </g>
                        </g>
                    </g>
                    <g>
                        <rect x="8" y="58" class="adv-2" width="2" height="6"></rect>
                    </g>
                    <g>
                        <rect x="36" y="58" class="adv-2" width="2" height="6"></rect>
                    </g>
                </g>
            </g>
        </g>
    </symbol>
    <symbol id="advantages-2" viewBox="0 0 64 64">
        <g>
            <line class="st0" x1="33" y1="34" x2="33" y2="9"></line>
            <path class="st0" d="M29,21"></path>
            <path class="st0" d="M28,9h5.2V7c0-3.3-2.7-6-6-6H22v2C22,6.3,24.7,9,28,9z"></path>
            <g>
                <rect x="29" y="34" class="st0" width="27" height="29"></rect>
                <rect x="13" y="34" class="st0" width="16" height="29"></rect>
                <path class="st0" d="M56,34l5-5v-2c-0.8-0.8-1.2-1.2-2-2H47c-0.8,0.8-1.2,1.2-2,2v2l-5,5"></path>
                <polyline class="st0" points="13,34 3,24 3,21 18,21 		"></polyline>
                <path class="st0" d="M28,34l-5-5v-2c-0.8-0.8-1.2-1.2-2-2H10c-0.8,0.8-1.2,1.2-2,2v2"></path>
            </g>
            <path class="st0" d="M38.2,15H33v-2c0-3.3,2.7-6,6-6h5.2v2C44.2,12.3,41.5,15,38.2,15z"></path>
            <path class="st0" d="M28,20h5.2v-2c0-3.3-2.7-6-6-6H22v2C22,17.3,24.7,20,28,20z"></path>
            <path class="st0" d="M38.2,26H33v-2c0-3.3,2.7-6,6-6h5.2v2C44.2,23.3,41.5,26,38.2,26z"></path>
            <line class="st0" x1="20" y1="21" x2="22" y2="21"></line>
            <line class="st0" x1="36" y1="46" x2="50" y2="46"></line>
            <line class="st0" x1="36" y1="50" x2="50" y2="50"></line>
            <line class="st0" x1="0" y1="63" x2="14" y2="63"></line>
            <line class="st0" x1="52" y1="63" x2="64" y2="63"></line>
            <g>
                <g>
                    <path class="st0" d="M58,11.3L58,11.3L58,11.3c0-2.2-1.8-4-4-4l0,0c-2.2,0-4,1.8-4,4l0,0c-2.2,0-4,1.8-4,4"></path>
                </g>
                <g>
                    <path class="st0" d="M63,15.3L63,15.3L63,15.3c0-2.2-1.8-4-4-4l0,0c-2.2,0-4,1.8-4,4l0,0"></path>
                </g>
            </g>
            <g>
                <g>
                    <path class="st0" d="M15,5.3L15,5.3L15,5.3c0-2.2-1.8-4-4-4l0,0c-2.2,0-4,1.8-4,4l0,0c-2.2,0-4,1.8-4,4"></path>
                </g>
                <g>
                    <path class="st0" d="M20,9.3L20,9.3L20,9.3c0-2.2-1.8-4-4-4l0,0c-2.2,0-4,1.8-4,4l0,0"></path>
                </g>
            </g>
            <line class="st0" x1="9" y1="14.3" x2="17" y2="14.3"></line>
            <line class="st0" x1="7" y1="14.3" x2="5" y2="14.3"></line>
            <line class="st0" x1="52" y1="20.3" x2="60" y2="20.3"></line>
            <line class="st0" x1="50" y1="20.3" x2="48" y2="20.3"></line>
        </g>
    </symbol>
    <symbol id="advantages-3" viewBox="0 0 64 65">
        <style type="text/css">
	        .st0{fill:none;stroke:#414141;stroke-width:2;stroke-miterlimit:10;}
        </style>
        <g>
        </g>
        <g>
            <g>
                <path class="st0" d="M34,60.6L34,60.6c0,1.4,1.1,2.5,2.5,2.5h4c1.4,0,2.5-1.1,2.5-2.5l0,0c0-1.4-1.1-2.5-2.5-2.5h-4
			C35.1,58.1,34,59.2,34,60.6z"></path>
                <path class="st0" d="M34,55.6L34,55.6c0,1.4,1.1,2.5,2.5,2.5h6c1.4,0,2.5-1.1,2.5-2.5l0,0c0-1.4-1.1-2.5-2.5-2.5h-6
			C35.1,53.1,34,54.2,34,55.6z"></path>
                <path class="st0" d="M34,50.6L34,50.6c0,1.4,1.1,2.5,2.5,2.5h7c1.4,0,2.5-1.1,2.5-2.5l0,0c0-1.4-1.1-2.5-2.5-2.5h-7
			C35.1,48.1,34,49.2,34,50.6z"></path>
                <path class="st0" d="M34,44.1v1.5c-0.3,0.7,1.1,2.3,2.5,2.5h6c1.4,0,2.5-1.1,2.5-2.5l0,0c0-1.4-1.1-2.5-2.5-2.5h-4.2"></path>
                <path class="st0" d="M24,54.1h2l4-4v-6h6.5c1.4,0,2.5-1.1,2.5-2.5v-2.5H27l-6,5.1H4"></path>
                <polyline class="st0" points="4.2,60.1 21,60.1 27,63.1 28.9,63 		"></polyline>
            </g>
            <line class="st0" x1="2" y1="60.1" x2="0" y2="60.1"></line>
            <line class="st0" x1="2" y1="44.2" x2="0" y2="44.2"></line>
        </g>
        <path class="st0" d="M30,50v11c0,1.1,0.9,2,2,2l0,0"></path>
        <line class="st0" x1="29.9" y1="35" x2="29.9" y2="39"></line>
        <circle class="st0" cx="32" cy="18" r="17"></circle>
        <line class="st0" x1="33.9" y1="35" x2="33.9" y2="39"></line>
        <g>
            <g>
                <path class="st0" d="M17.3,9.5c-0.8-1.3-2.1-2.3-3.8-2.5C10.5,6.7,8,9.1,8,12v2c0,1.6,0.8,3.1,2,4v4l-6.6,2.9
			C1.9,25.6,1,27,1,28.6V41"></path>
                <line class="st0" x1="5" y1="36" x2="5" y2="41"></line>
            </g>
            <g>
                <path class="st0" d="M44,30v-1.4c0-1.6-0.9-3-2.4-3.7L35,22v-4c1.2-0.9,2-2.3,2-4v-1.8c0-2.6-1.9-4.9-4.5-5.2
			c-3-0.3-5.5,2.1-5.5,5v2c0,1.6,0.8,3.1,2,4v4l-6.6,2.9C20.9,25.6,20,27,20,28.6V30"></path>
            </g>
            <g>
                <path class="st0" d="M46.7,9.5c0.9-1.6,2.8-2.6,4.8-2.4c2.6,0.2,4.5,2.6,4.5,5.2V14c0,1.6-0.8,3.1-2,4v4l6.6,2.9
			c1.4,0.6,2.4,2.1,2.4,3.7V57h-4v3"></path>
                <line class="st0" x1="59" y1="36" x2="59" y2="57"></line>
            </g>
            <line class="st0" x1="59" y1="62" x2="59" y2="64"></line>
        </g>
        <line class="st0" x1="21" y1="36" x2="21" y2="40"></line>
        <line class="st0" x1="43" y1="36" x2="43" y2="40"></line>
        <line class="st0" x1="56" y1="50" x2="49" y2="50"></line>
        <line class="st0" x1="50" y1="54" x2="50" y2="64"></line>
        <line class="st0" x1="56" y1="54" x2="54" y2="54"></line>
        <line class="st0" x1="52" y1="32" x2="56" y2="32"></line>
        <polyline class="st0" points="54,22 52,24 48,24 "></polyline>
        <polyline class="st0" points="10,22 12,24 16,24 "></polyline>
        <polyline class="st0" points="28,22 30,24 34,24 35.5,22.5 "></polyline>
    </symbol>
    <symbol id="advantages-4" viewBox="0 0 61 64">
        <g data-name="Уделяем внимание каждой детали">
            <path data-name="Уделяем внимание каждой детали" class="adv-1" d="M1339,4862h-53.91v-2H1339v2Zm-5.64,4h-42.64l-5.26-4.22a1,1,0,0,1-.16-1.4,1.012,1.012,0,0,1,1.41-.16l4.71,3.78h41.24l4.72-3.78a1,1,0,1,1,1.25,1.56Zm-29.3,30.88a0.853,0.853,0,0,1-.63-0.26,0.881,0.881,0,0,1,0-1.24l13.92-13.94,5.89-8.85,2.96-7.9a0.874,0.874,0,0,1,1.13-.52,0.885,0.885,0,0,1,.52,1.14l-3.09,8.18-6.1,9.13-13.98,14A0.847,0.847,0,0,1,1304.06,4896.88Zm-9.99-9.88a0.86,0.86,0,0,1-.16-0.01,0.989,0.989,0,0,1-.82-1.15l1.09-6.29,2.89-5.79v-4.64l-0.97-3.88a0.994,0.994,0,1,1,1.93-.48l1.03,4.24v5.24l-3.03,6.07-0.97,5.85A1.015,1.015,0,0,1,1294.07,4887Zm14.86-8.94-4.78-2.39-1.08-6.51-0.98-3.92a0.993,0.993,0,0,1,.72-1.21,1.01,1.01,0,0,1,1.22.73l0.99,4,0.94,5.57,3.2,1.61,3.43-.86,4.67-3.74,3.9-6.84a1,1,0,0,1,1.36-.37,1.014,1.014,0,0,1,.38,1.37l-4.09,7.16-5.31,4.26ZM1279.09,4900a1,1,0,0,1-.7-1.71l6.99-7a1,1,0,0,1,1.41,0,1.008,1.008,0,0,1,0,1.42l-6.99,7A1.024,1.024,0,0,1,1279.09,4900Zm15.98,8a1.024,1.024,0,0,1-.71-0.29,1.008,1.008,0,0,1,0-1.42l3-3a1,1,0,0,1,1.41,0,1.008,1.008,0,0,1,0,1.42l-3,3A1,1,0,0,1,1295.07,4908Zm3.99-2a1,1,0,0,1-.7-0.29l-13.98-14a1.008,1.008,0,0,1,0-1.42l6.99-7a1,1,0,0,1,1.41,0l13.98,14a1.008,1.008,0,0,1,0,1.42l-6.99,7A1.024,1.024,0,0,1,1299.06,4906Zm-12.56-15,12.56,12.59,5.58-5.59-12.57-12.59Zm13.56,8a1,1,0,0,1-.7-0.29l-2-2a1.008,1.008,0,0,1,0-1.42,1,1,0,0,1,1.41,0l2,2a1.008,1.008,0,0,1,0,1.42A1.024,1.024,0,0,1,1300.06,4899Zm8.99-21a1.024,1.024,0,0,1-.71-0.29,1.008,1.008,0,0,1,0-1.42l4.86-4.86,2.92-6.82a0.995,0.995,0,1,1,1.83.78l-3.07,7.18-5.13,5.14A1,1,0,0,1,1309.05,4878Zm-15.69-22.29-2.99-3,1.41-1.42,3,3Zm8.8-5.26-1.99-4,1.78-.9,2,4Zm28.56,5.26-1.41-1.42,3-3,1.41,1.42Zm-8.8-5.26-1.78-.9,1.99-4,1.79,0.9Zm-8.88-2.45h-1.99v-4h1.99v4Z" transform="translate(-1278 -4844)"></path>
        </g>
    </symbol>
    <symbol id="advantages-5" viewBox="0 0 60 60">
        <style type="text/css">
        .st0{fill:none;stroke:#414141;stroke-width:2;stroke-miterlimit:10;}
        .st1{fill:none;stroke:#414141;stroke-width:2;stroke-linecap:round;stroke-miterlimit:10;}
        </style>
        <g>
        </g>
        <g>
            <path class="st0" d="M24,59v-9h2c1.7,0,3-1.3,3-3l0,0c0-1.7-1.3-3-3-3h-2V28h-2c-1.7,0-3-1.3-3-3l0,0c0-1.7,1.3-3,3-3h2v-9"></path>
            <path class="st1" d="M5,36h5v2c0,1.7,1.3,3,3,3l0,0c1.7,0,3-1.3,3-3v-2h16v-2c0-1.7,1.3-3,3-3l0,0c1.7,0,3,1.3,3,3v2h9"></path>
            <polygon class="st0" points="59,1 13,1 1,13 1,59 47,59 59,46 	"></polygon>
            <polyline class="st1" points="47,20 47,13 6,13 	"></polyline>
            <line class="st1" x1="47" y1="44" x2="47" y2="23.9"></line>
            <line class="st0" x1="47" y1="13" x2="59" y2="1"></line>
            <line class="st0" x1="24" y1="13" x2="35.9" y2="1.1"></line>
            <line class="st0" x1="35.1" y1="13" x2="47" y2="1.1"></line>
            <line class="st0" x1="47" y1="36" x2="59" y2="23"></line>
            <line class="st1" x1="47" y1="59" x2="47" y2="47.9"></line>
        </g>
    </symbol>
    <symbol id="advantages-6" viewBox="0 0 64 56">
        <g data-name="высоким  требованиям">
            <path data-name="высоким  требованиям" class="adv-1" d="M708,5166a1,1,0,0,1-.782-0.38l-30.932-39a0.991,0.991,0,0,1-.074-1.13l8.98-15a0.982,0.982,0,0,1,.856-0.49h43.9a0.982,0.982,0,0,1,.855.49l8.98,15a0.989,0.989,0,0,1-.074,1.13l-30.932,39A1,1,0,0,1,708,5166Zm-29.721-40.08L708,5163.39l29.721-37.47L729.383,5112H686.61Zm60.653,1.08H677.064v-2h61.865v2Zm-19.152-.41-1.609-1.18,10.976-15,1.609,1.18Zm-1.609,0-10.976-15,1.609-1.18,10.976,15Zm-20.342,0-1.61-1.18,10.976-15,1.609,1.18Zm-1.61,0-10.976-15,1.61-1.18,10.976,15Zm10.82,38.68-10.976-39,1.922-.54,10.975,39Zm1.921,0-1.921-.54,10.976-39,1.921,0.54Z" transform="translate(-676 -5110)"></path>
        </g>
    </symbol>
    <symbol id="advantages-7" viewBox="0 0 64 64">
        <g data-name="правильной геометрии">
            <path data-name="правильной геометрии" class="adv-1" d="M1005,5151a1.024,1.024,0,0,1-.71-0.29l-13-13a1.006,1.006,0,0,1,0-1.42l5-5a1,1,0,0,1,1.414,0l7.293,7.3,13.29-13.3a1.008,1.008,0,0,1,1.42,0l5,5a1.008,1.008,0,0,1,0,1.42l-19,19A1.024,1.024,0,0,1,1005,5151Zm-11.586-14L1005,5148.59l17.59-17.59-3.59-3.59-13.29,13.3a1.008,1.008,0,0,1-1.42,0l-7.29-7.3ZM1009,5164h-2v-2h2v2Zm0-50h-2v-2h2v2Zm-25,25h-2v-2h2v2Zm50,0h-2v-2h2v2Zm-26,31a32,32,0,1,1,32-32A32.039,32.039,0,0,1,1008,5170Zm0-62a30,30,0,1,0,30,30A30.035,30.035,0,0,0,1008,5108Z" transform="translate(-976 -5106)"></path>
        </g>
    </symbol>
    <symbol id="advantages-8" viewBox="0 0 64 64">
        <g>
        </g>
        <polyline class="st0" points="26,11 30,1 34,1 38,11 "></polyline>
        <rect x="12" y="11" class="st0" width="40" height="22"></rect>
        <g>
            <polyline class="st0" points="38,32.9 38,51 34,51 	"></polyline>
            <polyline class="st0" points="30,51 26,51 26,33 	"></polyline>
            <polygon class="st0" points="26,41 21,41 17,45 17,57 21,57 26,51 	"></polygon>
            <rect x="30" y="41" class="st0" width="4" height="16"></rect>
            <polygon class="st0" points="38,41 43,41 47,45 47,57 43,57 38,51 	"></polygon>
        </g>
        <path class="st0" d="M24,28V18c0.8-0.8,1.2-1.2,2-2h2c0.8,0.8,1.2,1.2,2,2v10"></path>
        <line class="st0" x1="24" y1="22" x2="30" y2="22"></line>
        <path class="st0" d="M34,27V16h4c0.8,0.8,1.2,1.2,2,2v7c-0.8,0.8-1.2,1.2-2,2H34z"></path>
        <line class="st0" x1="44" y1="22" x2="48" y2="22"></line>
        <line class="st0" x1="20" y1="22" x2="16" y2="22"></line>
        <line class="st0" x1="28" y1="58" x2="28" y2="60"></line>
        <line class="st0" x1="28" y1="62" x2="28" y2="64"></line>
        <line class="st0" x1="36" y1="58" x2="36" y2="60"></line>
        <line class="st0" x1="36" y1="62" x2="36" y2="64"></line>
        <line class="st0" x1="32" y1="60" x2="32" y2="62"></line>
        <line class="st0" x1="38" y1="56" x2="38" y2="58"></line>
        <line class="st0" x1="38" y1="60" x2="38" y2="62"></line>
        <line class="st0" x1="26" y1="56" x2="26" y2="58"></line>
        <line class="st0" x1="26" y1="60" x2="26" y2="62"></line>
        <g>
            <path class="st0" d="M63,64L63,64c0-2.2-1.8-4-4-4l0,0l0,0c0-2.2-1.8-4-4-4l0,0c-2.2,0-4,1.8-4,4l0,0"></path>
        </g>
        <g>
            <path class="st0" d="M13,60L13,60L13,60c0-2.2-1.8-4-4-4l0,0c-2.2,0-4,1.8-4,4l0,0c-2.2,0-4,1.8-4,4"></path>
        </g>
        <g>
            <path class="st0" d="M14,48L14,48c-2.2,0-4,1.8-4,4l0,0c-2.2,0-4,1.8-4,4v1.3"></path>
        </g>
        <g>
            <path class="st0" d="M50,48L50,48c2.2,0,4,1.8,4,4l0,0c2.2,0,4,1.8,4,4v1.4"></path>
        </g>
        <g>
            <path class="st0" d="M53,64L53,64L53,64c0-2.2-1.8-4-4-4l0,0c-2.2,0-4,1.8-4,4l0,0"></path>
        </g>
        <g>
            <path class="st0" d="M18,64L18,64L18,64c0-2.2-1.8-4-4-4l0,0c-2.2,0-4,1.8-4,4l0,0"></path>
        </g>
        <line class="st0" x1="12" y1="36" x2="12" y2="40"></line>
        <line class="st0" x1="12" y1="42" x2="12" y2="44"></line>
        <line class="st0" x1="52" y1="36" x2="52" y2="40"></line>
        <line class="st0" x1="52" y1="42" x2="52" y2="44"></line>
    </symbol>
    <symbol id="close" viewBox="0 0 20 20" height="20" width="20">
        <g data-name="закрыть ">
            <path data-name="Фигура 13" class="cls-1" d="M1190.91,168.907l18.15,18.156" transform="translate(-1190 -168)" stroke="#7b7b7b" stroke-width="1px" stroke-linecap="round"></path>
            <path data-name="Фигура 14" class="cls-1" d="M1190.91,187.063l18.15-18.156" transform="translate(-1190 -168)" stroke="#7b7b7b" stroke-width="1px" stroke-linecap="round"></path>
        </g>
    </symbol>
</svg>